<svg xmlns="http://www.w3.org/2000/svg" viewBox="0 0 100 100">
  <defs>
    <linearGradient id="coinGradient" x1="0%" y1="0%" x2="100%" y2="100%">
      <stop offset="0%" style="stop-color:#f7931a;stop-opacity:1" />
      <stop offset="100%" style="stop-color:#f2a900;stop-opacity:1" />
    </linearGradient>
  </defs>

  <!-- Outer circle (coin) -->
  <circle cx="50" cy="50" r="48" fill="url(#coinGradient)" stroke="#d97706" stroke-width="2"/>

  <!-- Inner circle -->
  <circle cx="50" cy="50" r="40" fill="none" stroke="#d97706" stroke-width="1.5" opacity="0.6"/>

  <!-- Crypto symbol (stylized B for Bitcoin/Blockchain) -->
  <path d="M 40 30 L 40 70 M 40 30 L 55 30 C 60 30 63 33 63 38 C 63 43 60 46 55 46 L 40 46 M 40 46 L 57 46 C 62 46 65 49 65 54 C 65 59 62 62 57 62 L 40 62 M 35 30 L 35 70 M 45 25 L 45 75 M 52 25 L 52 75"
        stroke="#ffffff"
        stroke-width="3"
        stroke-linecap="round"
        stroke-linejoin="round"
        fill="none"/>
</svg>
